HIERARCHY
ROOT Hips
{
 OFFSET 0.000000 0.000000 0.000000
 CHANNELS 6 Xposition Yposition Zposition Yrotation Xrotation Zrotation
 JOINT Chest
 {
  OFFSET 0.000000 9.585900 0.002600
  CHANNELS 3 Yrotation Xrotation Zrotation
  JOINT Chest2
  {
   OFFSET 0.000000 9.601200 -0.005300
   CHANNELS 3 Yrotation Xrotation Zrotation
   JOINT Chest3
   {
    OFFSET 0.000000 9.561800 0.000000
    CHANNELS 3 Yrotation Xrotation Zrotation
    JOINT Chest4
    {
     OFFSET 0.000000 9.552100 0.000000
     CHANNELS 3 Yrotation Xrotation Zrotation
     JOINT Neck
     {
      OFFSET 0.000000 14.453000 0.000000
      CHANNELS 3 Yrotation Xrotation Zrotation
      JOINT Head
      {
       OFFSET 0.000000 8.936500 -0.011300
       CHANNELS 3 Yrotation Xrotation Zrotation
       End Site
       {
        OFFSET 0.000000 17.073600 -0.006000
       }
      }
     }
     JOINT RightCollar
     {
      OFFSET -2.921100 9.558500 0.000000
      CHANNELS 3 Yrotation Xrotation Zrotation
      JOINT RightShoulder
      {
       OFFSET -13.519700 0.000000 0.000000
       CHANNELS 3 Yrotation Xrotation Zrotation
       JOINT RightElbow
       {
        OFFSET 0.000000 -29.696600 0.000000
        CHANNELS 3 Yrotation Xrotation Zrotation
        JOINT RightWrist
        {
         OFFSET 0.000000 -24.004700 0.000000
         CHANNELS 3 Yrotation Xrotation Zrotation
         End Site
         {
          OFFSET 0.000000 -17.728500 0.000000
         }
        }
       }
      }
     }
     JOINT LeftCollar
     {
      OFFSET 2.921100 9.558500 0.000000
      CHANNELS 3 Yrotation Xrotation Zrotation
      JOINT LeftShoulder
      {
       OFFSET 13.519700 0.000000 0.000000
       CHANNELS 3 Yrotation Xrotation Zrotation
       JOINT LeftElbow
       {
        OFFSET 0.000000 -29.696600 0.000000
        CHANNELS 3 Yrotation Xrotation Zrotation
        JOINT LeftWrist
        {
         OFFSET 0.000000 -24.004700 0.000000
         CHANNELS 3 Yrotation Xrotation Zrotation
         End Site
         {
          OFFSET 0.000000 -17.728500 0.000000
         }
        }
       }
      }
     }
    }
   }
  }
 }
 JOINT RightHip
 {
  OFFSET -7.771700 -0.012900 -0.001300
  CHANNELS 3 Yrotation Xrotation Zrotation
  JOINT RightKnee
  {
   OFFSET 0.000000 -40.869800 0.001200
   CHANNELS 3 Yrotation Xrotation Zrotation
   JOINT RightAnkle
   {
    OFFSET 0.000000 -39.717900 0.002100
    CHANNELS 3 Yrotation Xrotation Zrotation
    JOINT RightToe
    {
     OFFSET 0.000000 -4.965400 11.033500
     CHANNELS 3 Yrotation Xrotation Zrotation
     End Site
     {
      OFFSET 0.000000 -1.423100 5.872300
     }
    }
   }
  }
 }
 JOINT LeftHip
 {
  OFFSET 7.771700 -0.012900 -0.001300
  CHANNELS 3 Yrotation Xrotation Zrotation
  JOINT LeftKnee
  {
   OFFSET 0.000000 -40.869800 0.001200
   CHANNELS 3 Yrotation Xrotation Zrotation
   JOINT LeftAnkle
   {
    OFFSET 0.000000 -39.717900 0.002100
    CHANNELS 3 Yrotation Xrotation Zrotation
    JOINT LeftToe
    {
     OFFSET 0.000000 -4.965400 11.033500
     CHANNELS 3 Yrotation Xrotation Zrotation
     End Site
     {
      OFFSET 0.000000 -1.423100 5.872300
     }
    }
   }
  }
 }
}
MOTION
Frames: 5
Frame Time: 0.008333
0.000000 85.388000 0.000000 0.000000 -5.767877 0.000000 0.000000 11.653817 0.000000 0.000000 -5.885947 0.000000 0.000000 -0.000000 0.000000 0.000000 -0.000000 0.000000 0.000000 12.528835 0.000000 0.000000 0.711642 0.000000 0.000000 -0.000000 0.000000 0.000000 0.000000 -90.000000 0.000000 -2.309062 0.000000 0.000000 2.309062 0.000000 0.000000 -0.000000 0.000000 0.000000 -0.000000 90.000000 0.000000 -2.309062 0.000000 0.000000 2.309062 0.000000 0.000000 8.520406 0.000000 0.000000 1.905762 0.000000 -0.000000 -4.658285 0.000000 0.000000 -0.000000 0.000000 0.000000 8.520406 0.000000 0.000000 1.905762 0.000000 -0.000000 -4.658285 0.000000 0.000000 -0.000000 0.000000
-230.319645 57.840047 -78.725995 163.951011 -6.942183 -2.472978 2.954934 5.521468 0.969498 0.108765 0.214608 0.000821 0.191561 0.378254 0.001663 2.752425 5.414145 0.145364 -3.005537 13.245900 4.721154 -7.555773 -10.761033 10.120822 2.094651 7.479664 1.482174 -4.055679 -8.518562 -8.147825 -121.020983 -85.071689 145.608424 -0.720154 2.832186 -20.036992 -5.133396 6.276989 -1.905987 12.382266 -2.541705 5.246810 94.831043 -79.889247 -130.093628 -1.986399 6.720953 14.302911 -18.437139 -63.187048 8.828053 -38.146801 70.726746 -39.543977 -4.841385 -8.013368 1.107385 -0.566373 1.085483 -0.227856 -10.689203 -67.645840 21.470600 44.628670 64.327830 39.083692 -18.203150 -5.849167 3.280831 -0.127168 -1.184016 0.038705
-230.314807 57.832512 -78.730033 163.987685 -7.014573 -2.466803 2.925488 5.555189 1.015759 0.109067 0.201543 0.017889 0.187379 0.377782 0.003844 2.722082 5.445270 0.126974 -3.013667 13.254229 4.823642 -7.570573 -10.702268 10.213476 2.113916 7.491957 1.528463 -4.000094 -8.610736 -8.183101 -121.987762 -85.064100 146.585128 -0.682735 2.835185 -19.960617 -5.070870 6.302007 -1.854504 12.599627 -2.339518 5.238893 95.414503 -79.774735 -130.841322 -2.026228 6.765330 14.183829 -18.464823 -63.150625 8.814242 -38.224975 70.770668 -39.651883 -4.861702 -7.987090 1.104237 -0.558408 1.034864 -0.223914 -10.536355 -67.587488 21.354015 44.505893 64.363919 38.973194 -18.262416 -5.876159 3.241893 -0.078273 -1.151998 0.098033
-230.321994 57.823289 -78.734481 164.041489 -7.076157 -2.386138 2.867907 5.609728 0.948831 0.110590 0.188701 0.034330 0.189197 0.353913 0.037520 2.687695 5.473078 0.110340 -3.019037 13.270729 4.917111 -7.588673 -10.641768 10.298255 2.134761 7.504926 1.581128 -3.950808 -8.705992 -8.228014 -123.005839 -85.052921 147.605042 -0.650386 2.836604 -19.902567 -5.010622 6.326361 -1.802906 12.821363 -2.141344 5.227329 96.066213 -79.669696 -131.631463 -2.061614 6.793725 14.102378 -18.366340 -63.148423 8.638943 -38.303538 70.816226 -39.752285 -4.915549 -8.000390 1.077556 -0.519824 1.023625 -0.198756 -10.224403 -67.552479 21.059094 44.569475 64.368094 38.933479 -18.285062 -5.871670 3.350117 -0.153796 -1.153344 0.068096
-230.323892 57.814180 -78.737660 164.106183 -7.145333 -2.333705 2.810845 5.633107 0.956267 0.115189 0.183220 0.048250 0.177057 0.387100 -0.006985 2.624632 5.436668 0.233982 -3.008770 13.322883 4.819625 -7.627668 -10.572133 10.439775 2.172231 7.565558 1.474455 -3.914870 -8.803857 -8.225321 -124.055117 -85.039477 148.648367 -0.625208 2.835623 -19.864752 -4.936166 6.383651 -1.867719 13.043827 -1.954596 5.210618 96.742488 -79.567552 -132.419712 -2.091952 6.824000 14.048565 -18.303938 -63.122735 8.496601 -38.373458 70.859634 -39.840597 -4.944200 -8.025956 1.058766 -0.503514 1.021525 -0.182039 -9.993202 -67.502940 20.836698 44.549669 64.384878 38.846242 -18.301608 -5.874805 3.373227 -0.209297 -1.142550 0.091927
